<?xml version="1.0" encoding="utf-8"?>
<!-- Generator: Adobe Illustrator 19.2.0, SVG Export Plug-In . SVG Version: 6.00 Build 0)  -->
<svg version="1.1" id="Layer_1" xmlns="http://www.w3.org/2000/svg" xmlns:xlink="http://www.w3.org/1999/xlink" x="0px" y="0px"
	 viewBox="0 0 101.8 137.8" style="enable-background:new 0 0 101.8 137.8;" xml:space="preserve">
<style type="text/css">
	.st0{fill:#E0E0E0;}
	.st1{fill:#FFFFFF;stroke:#CCCCCC;stroke-width:2;stroke-linecap:round;stroke-linejoin:round;}
	.st2{opacity:0.5;}
	.st3{fill:#CBCBCB;}
	.st4{fill:#5BBC2E;}
	.st5{fill:#B0E44F;}
	.st6{fill:none;stroke:#7D7D7D;stroke-width:2.5;stroke-linecap:round;stroke-linejoin:round;}
	.st7{fill:#D3F7FE;}
	.st8{fill:#CCCCCC;}
	.st9{fill:#FFFFFF;}
	.st10{fill:#B2B2B2;}
	.st11{fill:none;stroke:#CCCCCC;stroke-width:2;stroke-linecap:square;stroke-linejoin:round;}
	.st12{fill:#C8EC84;stroke:#7D7D7D;stroke-width:2.5;stroke-linecap:round;stroke-linejoin:round;}
	.st13{fill:#A1EDFE;stroke:#7D7D7D;stroke-width:2.5;stroke-linecap:round;stroke-linejoin:round;}
	.st14{fill:#9AE57C;stroke:#7D7D7D;stroke-width:2.5;stroke-linecap:round;stroke-linejoin:round;}
</style>
<title>1-</title>
<path class="st0" d="M7.6,9.3h86.5c3.4,0,6.2,2.8,6.2,6.2v113.6c0,3.4-2.8,6.2-6.2,6.2H7.6c-3.4,0-6.2-2.8-6.2-6.2V15.5
	C1.4,12.1,4.2,9.3,7.6,9.3z"/>
<rect x="9.5" y="95.6" class="st1" width="82.7" height="30.6"/>
<g class="st2">
	<path class="st3" d="M16,102.2h6c0.5,0,0.9,0.4,0.9,0.9v6.1c0,0.5-0.4,0.9-0.9,0.9h-6c-0.5,0-0.9-0.4-0.9-0.9v-6.1
		C15.1,102.6,15.5,102.2,16,102.2z"/>
	<path class="st4" d="M16,113.8h6c0.5,0,0.9,0.4,0.9,0.9v6.1c0,0.5-0.4,0.9-0.9,0.9h-6c-0.5,0-0.9-0.4-0.9-0.9v-6.1
		C15.1,114.2,15.5,113.8,16,113.8z"/>
	<path class="st5" d="M28.8,102.2h6c0.5,0,0.9,0.4,0.9,0.9v6.1c0,0.5-0.4,0.9-0.9,0.9h-6c-0.5,0-0.9-0.4-0.9-0.9v-6.1
		C27.9,102.6,28.3,102.2,28.8,102.2z"/>
	<path class="st3" d="M28.8,113.8h6c0.5,0,0.9,0.4,0.9,0.9v6.1c0,0.5-0.4,0.9-0.9,0.9h-6c-0.5,0-0.9-0.4-0.9-0.9v-6.1
		C27.9,114.2,28.3,113.8,28.8,113.8z"/>
	<path class="st4" d="M41.5,102.2h6.1c0.5,0,0.9,0.4,0.9,0.9v6.1c0,0.5-0.4,0.9-0.9,0.9h-6.1c-0.5,0-0.9-0.4-0.9-0.9v-6.1
		C40.6,102.6,41,102.2,41.5,102.2z"/>
	<path class="st3" d="M41.5,113.8h6.1c0.5,0,0.9,0.4,0.9,0.9v6.1c0,0.5-0.4,0.9-0.9,0.9h-6.1c-0.5,0-0.9-0.4-0.9-0.9v-6.1
		C40.6,114.2,41,113.8,41.5,113.8z"/>
	<path class="st3" d="M54.2,102.2h6.1c0.5,0,0.9,0.4,0.9,0.9v6.1c0,0.5-0.4,0.9-0.9,0.9h-6.1c-0.5,0-0.9-0.4-0.9-0.9v-6.1
		C53.3,102.6,53.7,102.2,54.2,102.2z"/>
	<path class="st5" d="M54.2,113.8h6.1c0.5,0,0.9,0.4,0.9,0.9v6.1c0,0.5-0.4,0.9-0.9,0.9h-6.1c-0.5,0-0.9-0.4-0.9-0.9v-6.1
		C53.3,114.2,53.7,113.8,54.2,113.8z"/>
	<path class="st3" d="M66.9,102.2H73c0.5,0,0.9,0.4,0.9,0.9v6.1c0,0.5-0.4,0.9-0.9,0.9h-6.1c-0.5,0-0.9-0.4-0.9-0.9v-6.1
		C66.1,102.6,66.5,102.2,66.9,102.2z"/>
	<path class="st3" d="M66.9,113.8H73c0.5,0,0.9,0.4,0.9,0.9v6.1c0,0.5-0.4,0.9-0.9,0.9h-6.1c-0.5,0-0.9-0.4-0.9-0.9v-6.1
		C66.1,114.2,66.5,113.8,66.9,113.8z"/>
	<path class="st5" d="M79.7,102.2h6.1c0.5,0,0.9,0.4,0.9,0.9v6.1c0,0.5-0.4,0.9-0.9,0.9h-6.1c-0.5,0-0.9-0.4-0.9-0.9v-6.1
		C78.8,102.6,79.2,102.2,79.7,102.2z"/>
	<path class="st3" d="M79.7,113.8h6.1c0.5,0,0.9,0.4,0.9,0.9v6.1c0,0.5-0.4,0.9-0.9,0.9h-6.1c-0.5,0-0.9-0.4-0.9-0.9v-6.1
		C78.8,114.2,79.2,113.8,79.7,113.8z"/>
</g>
<path class="st6" d="M7.6,10.6h86.5c3.4,0,6.2,2.8,6.2,6.2v113.6c0,3.4-2.8,6.2-6.2,6.2H7.6c-3.4,0-6.2-2.8-6.2-6.2V16.8
	C1.4,13.4,4.2,10.6,7.6,10.6z"/>
<rect x="9.5" y="19.4" class="st7" width="82.7" height="66"/>
<path class="st8" d="M16,100.3h6c0.5,0,0.9,0.4,0.9,0.9v6.1c0,0.5-0.4,0.9-0.9,0.9h-6c-0.5,0-0.9-0.4-0.9-0.9v-6.1
	C15.1,100.7,15.5,100.3,16,100.3z"/>
<path class="st4" d="M16,111.9h6c0.5,0,0.9,0.4,0.9,0.9v6.1c0,0.5-0.4,0.9-0.9,0.9h-6c-0.5,0-0.9-0.4-0.9-0.9v-6.1
	C15.1,112.3,15.5,111.9,16,111.9z"/>
<path class="st5" d="M28.8,100.3h6c0.5,0,0.9,0.4,0.9,0.9v6.1c0,0.5-0.4,0.9-0.9,0.9h-6c-0.5,0-0.9-0.4-0.9-0.9v-6.1
	C27.9,100.7,28.3,100.3,28.8,100.3z"/>
<path class="st8" d="M28.8,111.9h6c0.5,0,0.9,0.4,0.9,0.9v6.1c0,0.5-0.4,0.9-0.9,0.9h-6c-0.5,0-0.9-0.4-0.9-0.9v-6.1
	C27.9,112.3,28.3,111.9,28.8,111.9z"/>
<path class="st4" d="M41.5,100.3h6.1c0.5,0,0.9,0.4,0.9,0.9v6.1c0,0.5-0.4,0.9-0.9,0.9h-6.1c-0.5,0-0.9-0.4-0.9-0.9v-6.1
	C40.6,100.7,41,100.3,41.5,100.3z"/>
<path class="st8" d="M41.5,111.9h6.1c0.5,0,0.9,0.4,0.9,0.9v6.1c0,0.5-0.4,0.9-0.9,0.9h-6.1c-0.5,0-0.9-0.4-0.9-0.9v-6.1
	C40.6,112.3,41,111.9,41.5,111.9z"/>
<path class="st8" d="M54.2,100.3h6.1c0.5,0,0.9,0.4,0.9,0.9v6.1c0,0.5-0.4,0.9-0.9,0.9h-6.1c-0.5,0-0.9-0.4-0.9-0.9v-6.1
	C53.3,100.7,53.7,100.3,54.2,100.3z"/>
<path class="st5" d="M54.2,111.9h6.1c0.5,0,0.9,0.4,0.9,0.9v6.1c0,0.5-0.4,0.9-0.9,0.9h-6.1c-0.5,0-0.9-0.4-0.9-0.9v-6.1
	C53.3,112.3,53.7,111.9,54.2,111.9z"/>
<path class="st8" d="M66.9,100.3H73c0.5,0,0.9,0.4,0.9,0.9v6.1c0,0.5-0.4,0.9-0.9,0.9h-6.1c-0.5,0-0.9-0.4-0.9-0.9v-6.1
	C66.1,100.7,66.5,100.3,66.9,100.3z"/>
<path class="st8" d="M66.9,111.9H73c0.5,0,0.9,0.4,0.9,0.9v6.1c0,0.5-0.4,0.9-0.9,0.9h-6.1c-0.5,0-0.9-0.4-0.9-0.9v-6.1
	C66.1,112.3,66.5,111.9,66.9,111.9z"/>
<path class="st5" d="M79.7,100.3h6.1c0.5,0,0.9,0.4,0.9,0.9v6.1c0,0.5-0.4,0.9-0.9,0.9h-6.1c-0.5,0-0.9-0.4-0.9-0.9v-6.1
	C78.8,100.7,79.2,100.3,79.7,100.3z"/>
<path class="st8" d="M79.7,111.9h6.1c0.5,0,0.9,0.4,0.9,0.9v6.1c0,0.5-0.4,0.9-0.9,0.9h-6.1c-0.5,0-0.9-0.4-0.9-0.9v-6.1
	C78.8,112.3,79.2,111.9,79.7,111.9z"/>
<rect x="9.5" y="19.4" class="st6" width="82.7" height="66"/>
<polyline class="st9" points="20.2,83.9 20.2,29.6 81.6,29.6 81.6,83.9 "/>
<path class="st10" d="M26.6,43.6l0.8-0.9c0.3,0.3,0.7,0.6,1.1,0.6c0.4,0,0.8-0.3,0.8-0.8c0-0.1,0-0.1,0-0.2v-3.8h1.3v3.9
	c0.1,0.6-0.1,1.2-0.6,1.6c-0.4,0.4-1,0.6-1.5,0.5C27.8,44.6,27.1,44.2,26.6,43.6z"/>
<path class="st10" d="M31.7,41.5L31.7,41.5c0-1.7,1.4-3.1,3.1-3.1s3.1,1.4,3.1,3.1l0,0c0,1.7-1.4,3.1-3.1,3.1S31.7,43.2,31.7,41.5
	L31.7,41.5z M36.6,41.5L36.6,41.5c0-1-0.7-1.8-1.7-1.8c0,0,0,0-0.1,0c-1,0-1.8,0.8-1.8,1.8c0,0,0,0,0,0.1l0,0c0,1,0.8,1.8,1.7,1.8
	c0,0,0.1,0,0.1,0C35.9,43.3,36.6,42.5,36.6,41.5C36.6,41.5,36.6,41.5,36.6,41.5z"/>
<path class="st10" d="M39.1,38.5h2.8c0.6,0,1.1,0.1,1.6,0.5c0.3,0.3,0.4,0.6,0.4,1l0,0c0,0.5-0.3,1-0.8,1.3c0.7,0.2,1.1,0.8,1.1,1.5
	l0,0c0,1.1-0.9,1.6-2.2,1.6h-2.8V38.5L39.1,38.5z M41.6,40.9c0.6,0,0.9-0.2,0.9-0.6l0,0c0-0.4-0.3-0.6-0.8-0.6h-1.3v1.2L41.6,40.9
	L41.6,40.9z M41.9,43.3c0.6,0,0.9-0.2,0.9-0.6l0,0c0-0.4-0.3-0.6-1-0.6h-1.5v1.3L41.9,43.3L41.9,43.3z"/>
<path class="st10" d="M47.8,38.5h2.4c1.1-0.1,2.1,0.6,2.2,1.7c0,0.1,0,0.2,0,0.3l0,0c0,1.2-1,2.1-2.1,2.1c-0.1,0-0.2,0-0.3,0h-1v1.8
	h-1.3L47.8,38.5L47.8,38.5z M50.1,41.5c0.5,0,1-0.3,1-0.8c0,0,0,0,0-0.1l0,0c0-0.5-0.4-0.9-0.9-0.9c-0.1,0-0.1,0-0.2,0h-1v1.8
	L50.1,41.5L50.1,41.5z"/>
<path class="st10" d="M53.1,41.5L53.1,41.5c0-1.7,1.4-3.1,3.1-3.1c1.7,0,3.1,1.4,3.1,3.1l0,0c0,1.7-1.4,3.1-3.1,3.1
	C54.5,44.6,53.1,43.2,53.1,41.5z M58.1,41.5L58.1,41.5c0-1-0.7-1.8-1.7-1.8c0,0,0,0-0.1,0c-1,0-1.8,0.8-1.8,1.8c0,0,0,0,0,0.1l0,0
	c0,1,0.7,1.8,1.7,1.8c0,0,0,0,0.1,0C57.3,43.3,58.1,42.5,58.1,41.5C58.1,41.5,58.1,41.5,58.1,41.5z"/>
<path class="st10" d="M60.1,43.6l0.8-0.9c0.5,0.4,1.1,0.7,1.8,0.7c0.5,0,0.8-0.2,0.8-0.6l0,0c0-0.3-0.2-0.5-1.2-0.8
	c-1.2-0.3-2-0.6-2-1.8l0,0c0-1,0.9-1.8,1.9-1.8c0.1,0,0.1,0,0.2,0c0.8,0,1.6,0.3,2.2,0.8l-0.7,1c-0.4-0.3-1-0.5-1.5-0.6
	c-0.3-0.1-0.7,0.1-0.7,0.5c0,0,0,0,0,0.1l0,0c0,0.4,0.2,0.5,1.3,0.8c1.2,0.3,1.9,0.7,1.9,1.8l0,0c0,1-0.9,1.9-1.9,1.9
	c-0.1,0-0.2,0-0.3,0C61.7,44.5,60.8,44.2,60.1,43.6z"/>
<path class="st10" d="M67.2,39.7h-1.8v-1.2h4.9v1.2h-1.8v4.7h-1.3C67.2,44.4,67.2,39.7,67.2,39.7z"/>
<line class="st11" x1="27.3" y1="55" x2="47.5" y2="55"/>
<line class="st11" x1="27.3" y1="60.6" x2="74.5" y2="60.6"/>
<line class="st11" x1="27.3" y1="66.2" x2="74.5" y2="66.2"/>
<line class="st11" x1="27.3" y1="71.7" x2="74.5" y2="71.7"/>
<line class="st11" x1="27.3" y1="77.3" x2="74.5" y2="77.3"/>
<path class="st12" d="M60,5.5V4.4c0-1.7,1.4-3.1,3.1-3.1l0,0c1.7,0,3.1,1.4,3.1,3.1v1.1"/>
<path class="st13" d="M69.5,5.5V4.4c0-1.7,1.4-3.1,3.1-3.1l0,0c1.7,0,3.1,1.4,3.1,3.1v1.1"/>
<path class="st14" d="M79.4,5.5V4.4c0-1.7,1.4-3.1,3.1-3.1l0,0c1.7,0,3.1,1.4,3.1,3.1v1.1"/>
<polyline class="st6" points="56.4,9.5 56.4,6.2 88.3,6.2 88.3,9.5 "/>
</svg>
