<?xml version="1.0" encoding="utf-8"?>
<!-- Generator: Adobe Illustrator 19.2.0, SVG Export Plug-In . SVG Version: 6.00 Build 0)  -->
<svg version="1.1" id="Layer_1" xmlns="http://www.w3.org/2000/svg" xmlns:xlink="http://www.w3.org/1999/xlink" x="0px" y="0px"
	 viewBox="0 0 128 127.4" style="enable-background:new 0 0 128 127.4;" xml:space="preserve">
<style type="text/css">
	.st0{fill:#FFFFFF;stroke:#7D7D7D;stroke-width:2.5;stroke-linecap:round;stroke-linejoin:round;}
	.st1{fill:#B2B2B2;stroke:#7D7D7D;stroke-width:2.5;stroke-linecap:round;stroke-linejoin:round;}
	.st2{fill:#A7EEFE;}
	.st3{fill:#A0E784;}
	.st4{fill:#CBED8B;}
	.st5{fill:#F2F2F2;}
	.st6{fill:#D0F096;}
	.st7{fill:#D0EF95;}
	.st8{fill:#A9E98F;stroke:#A9E98F;stroke-width:2;stroke-linecap:round;stroke-linejoin:round;}
	.st9{fill:none;stroke:#A9E98F;stroke-width:2;stroke-linecap:round;stroke-linejoin:round;}
	.st10{fill:#B0E44F;}
	.st11{fill:#79E6FD;}
	.st12{fill:#B5F1FE;}
	.st13{fill:#E0E0E0;}
	.st14{fill:#FFFFFF;stroke:#B2B2B2;stroke-width:2.5;stroke-linecap:round;stroke-linejoin:round;}
</style>
<title>1-</title>
<polyline class="st0" points="1.5,38.4 1.5,119.8 126.5,119.8 126.5,38.4 "/>
<path class="st1" d="M126.5,33.3c0-3-2.4-5.5-5.5-5.5c0,0,0,0,0,0H7c-3,0-5.5,2.4-5.5,5.5l0,0v5.1h125L126.5,33.3L126.5,33.3z"/>
<path class="st2" d="M10.4,35.5c1-0.1,1.8-1,1.7-2c-0.1-0.9-0.8-1.7-1.7-1.7c-1,0.1-1.8,1-1.7,2C8.8,34.7,9.5,35.5,10.4,35.5
	L10.4,35.5z"/>
<path class="st3" d="M17.5,35.5c1-0.1,1.8-1,1.7-2c-0.1-0.9-0.8-1.7-1.7-1.7c-1,0.1-1.8,1-1.7,2C15.9,34.7,16.6,35.5,17.5,35.5
	L17.5,35.5z"/>
<path class="st4" d="M24.6,35.5c1-0.1,1.8-1,1.7-2c-0.1-0.9-0.8-1.7-1.7-1.7c-1,0.1-1.8,1-1.7,2C23,34.7,23.7,35.5,24.6,35.5
	L24.6,35.5z"/>
<rect x="43.1" y="49.8" class="st5" width="41.8" height="59.7"/>
<path class="st6" d="M50.9,18.3c0.7,0,1.2-0.6,1.2-1.2s-0.6-1.2-1.2-1.2s-1.2,0.6-1.2,1.2S50.2,18.3,50.9,18.3L50.9,18.3z"/>
<path class="st7" d="M71.2,4.1c1-0.1,1.8-1,1.7-2c-0.1-0.9-0.8-1.7-1.7-1.7c-1,0.1-1.8,1-1.7,2C69.5,3.3,70.2,4,71.2,4.1L71.2,4.1z"
	/>
<path class="st8" d="M69.6,19.5c0,0,2.6-2.5,5.1,0c-2.6-2.5,0-5.1,0-5.1s-2.6,2.6-5.1,0C72.2,17,69.6,19.5,69.6,19.5z"/>
<line class="st9" x1="56.6" y1="1.1" x2="56.6" y2="8.1"/>
<line class="st9" x1="60.1" y1="4.6" x2="53.1" y2="4.6"/>
<path class="st10" d="M50.2,93.5h26.6c0.1,0,0.2,0.1,0.2,0.2v7.6c0,0.1-0.1,0.2-0.2,0.2H50.2c-0.1,0-0.2-0.1-0.2-0.2v-7.6
	C50,93.6,50.1,93.5,50.2,93.5z"/>
<circle class="st11" cx="64" cy="72.4" r="15.5"/>
<path class="st12" d="M64,64.1L64,64.1c3.3,0,6,2.7,6,6v2c0,3.3-2.7,6-6,6l0,0c-3.3,0-6-2.7-6-6v-2C58,66.8,60.7,64.1,64,64.1z"/>
<rect x="61.9" y="77" class="st12" width="3.8" height="3.8"/>
<path class="st12" d="M63.9,78.8c-4,0-7.6,2.3-9.2,5.9c5.4,4.2,12.9,4.2,18.4,0.2C71.6,81.2,67.9,78.7,63.9,78.8z"/>
<circle class="st13" cx="22.5" cy="72.4" r="15.5"/>
<path class="st5" d="M22.5,64.1L22.5,64.1c3.3,0,6,2.7,6,6v2c0,3.3-2.7,6-6,6h0c-3.3,0-6-2.7-6-6v-2C16.5,66.8,19.2,64.1,22.5,64.1z
	"/>
<rect x="20.3" y="77" class="st5" width="3.8" height="3.8"/>
<path class="st5" d="M22.3,78.8c-4,0-7.6,2.3-9.2,5.9c5.4,4.2,12.9,4.2,18.4,0.2C30.1,81.2,26.4,78.7,22.3,78.8z"/>
<circle class="st13" cx="105.6" cy="72.4" r="15.5"/>
<path class="st5" d="M105.5,64.1L105.5,64.1c3.3,0,6,2.7,6,6v2c0,3.3-2.7,6-6,6l0,0c-3.3,0-6-2.7-6-6v-2
	C99.6,66.8,102.2,64.1,105.5,64.1z"/>
<rect x="103.4" y="77" class="st5" width="3.8" height="3.8"/>
<path class="st5" d="M105.4,78.8c-4,0-7.6,2.3-9.2,5.9c5.4,4.2,12.9,4.2,18.4,0.2C113.2,81.2,109.5,78.7,105.4,78.8z"/>
<path class="st14" d="M60.3,115.6v-12.2c0-1,0.8-1.8,1.8-1.8l0,0c1,0,1.8,0.8,1.8,1.8v5.2h3.7c2.1,0,3.7,1.7,3.7,3.7v6.3
	c0,4.1-3.3,7.4-7.3,7.4c0,0,0,0,0,0l0,0c-4.1,0-7.3-3.3-7.3-7.4l0,0v-3.7c0-2,1.6-3.7,3.6-3.9l0,0"/>
</svg>
