<?xml version="1.0" encoding="utf-8"?>
<!-- Generator: Adobe Illustrator 19.2.0, SVG Export Plug-In . SVG Version: 6.00 Build 0)  -->
<svg version="1.1" id="Layer_1" xmlns="http://www.w3.org/2000/svg" xmlns:xlink="http://www.w3.org/1999/xlink" x="0px" y="0px"
	 viewBox="0 0 146 116.5" style="enable-background:new 0 0 146 116.5;" xml:space="preserve">
<style type="text/css">
	.st0{fill:#E6E6E6;stroke:#7D7D7D;stroke-width:2.5;stroke-linecap:round;stroke-linejoin:round;}
	.st1{fill:#FFFFFF;}
	.st2{fill:none;stroke:#7D7D7D;stroke-width:2.5;stroke-linecap:round;stroke-linejoin:round;}
	.st3{fill:#B0E44F;stroke:#B0E44F;stroke-width:2;stroke-linecap:round;stroke-linejoin:round;}
	.st4{fill:#B0E44F;}
	.st5{fill:#6FDA44;}
	.st6{fill:#A0E784;}
	.st7{fill:none;stroke:#B2B2B2;stroke-width:2.44;stroke-linecap:round;stroke-linejoin:round;}
	.st8{fill:#CBED8B;}
	.st9{fill:#D5F7FF;stroke:#B2B2B2;stroke-width:2.5;stroke-linecap:round;stroke-linejoin:round;}
	.st10{fill:#73E6FF;}
	.st11{fill:#F2F2F2;}
	.st12{fill:#FFFFFF;stroke:#7D7D7D;stroke-width:2.5;stroke-linecap:round;stroke-linejoin:round;}
	.st13{fill:#CBED8B;stroke:#7D7D7D;stroke-width:2.5;stroke-linecap:round;stroke-linejoin:round;}
	.st14{fill:#E0E0E0;}
	.st15{fill:#909090;}
</style>
<title>1-</title>
<path class="st0" d="M16.7,19.1h113.7c2.3,0,4.1,1.9,4.1,4.1v75.5c0,2.3-1.9,4.1-4.1,4.1H16.7c-2.3,0-4.1-1.9-4.1-4.1V23.2
	C12.5,21,14.4,19.1,16.7,19.1z"/>
<path class="st0" d="M17.4,102.9c-2.6,0-4.8-2.1-4.8-4.8l0,0V23.9c0-2.6,2.1-4.8,4.8-4.8h0h112.4c2.6,0,4.8,2.1,4.8,4.8v74.2
	c0,2.6-2.1,4.8-4.8,4.8"/>
<polygon class="st1" points="128,96.6 91.7,96.5 55.5,96.7 19.4,96.5 19.2,72.9 19.5,49.1 19.3,25.3 55.5,25.5 91.7,25.3 
	127.9,25.5 128,49.1 127.8,72.8 "/>
<polygon class="st2" points="128,96.6 91.7,96.5 55.5,96.7 19.4,96.5 19.2,72.9 19.5,49.1 19.3,25.3 55.5,25.5 91.7,25.3 
	127.9,25.5 128,49.1 127.8,72.8 "/>
<path class="st0" d="M1.5,102.9h143l0,0l0,0c0,2.8-2.3,5.2-5.2,5.2l0,0H6.7C3.8,108.1,1.5,105.7,1.5,102.9L1.5,102.9L1.5,102.9
	L1.5,102.9L1.5,102.9z"/>
<rect x="29.8" y="35.3" class="st3" width="17.5" height="3.8"/>
<rect x="53.9" y="54.1" class="st4" width="27.1" height="2.1"/>
<rect x="30.3" y="54.1" class="st4" width="19.3" height="2.1"/>
<rect x="29.8" y="73.4" class="st4" width="32.7" height="2.1"/>
<rect x="69.4" y="73.4" class="st4" width="8.8" height="2.1"/>
<rect x="38.6" y="60.4" class="st5" width="60.8" height="2.1"/>
<rect x="38.6" y="66.3" class="st5" width="57.4" height="2.1"/>
<rect x="38.6" y="80.2" class="st5" width="60.8" height="2.1"/>
<polygon class="st6" points="40.4,21.4 26.2,36.9 26.2,39.4 62.8,39.5 62.6,21.1 54.9,13.3 44.9,24.6 "/>
<polyline class="st1" points="54.9,13.5 61.8,20.2 62.4,2.2 25.9,2.7 25.3,37.4 40.4,21.6 44.7,25.4 54.9,13.5 "/>
<polyline class="st7" points="25.4,38.7 40.4,21.4 49.7,30.5 "/>
<polyline class="st7" points="44.6,25.5 54.9,13.3 62.6,21.1 "/>
<ellipse transform="matrix(0.9999 -1.116988e-02 1.116988e-02 0.9999 -0.127 0.3915)" class="st8" cx="35" cy="11.6" rx="5" ry="5"/>
<rect x="25.2" y="2.2" class="st7" width="37.4" height="37.5"/>
<polygon class="st9" points="122.6,1.4 122.6,39.3 117.2,39.3 106.9,49.7 106.9,39.3 68.2,39.3 68.2,1.4 "/>
<circle class="st10" cx="84.9" cy="20.9" r="3.6"/>
<circle class="st10" cx="105.9" cy="20.9" r="3.6"/>
<circle class="st10" cx="95.4" cy="20.9" r="3.6"/>
<rect x="49.2" y="90.5" transform="matrix(2.443448e-03 -1 1 2.443448e-03 -53.7506 164.0132)" class="st11" width="12.2" height="36.9"/>
<path class="st1" d="M78.4,113.1c0-0.8-0.3-1.6-0.9-2.2l0,0c1.2-1.2,1.2-3.1,0-4.3c0,0,0,0,0,0l0,0c0.6-0.6,0.9-1.3,0.9-2.2
	c0-1.7-6.1-1.7-6.1,0c0,0.7,0.3,1.4,0.7,2c0.1,0.1,0.1,0.1,0.2,0.2c-1.2,1.1-1.2,3-0.2,4.2l0.2,0.2l0,0c-1.1,1.1-1.2,3-0.2,4.2
	C73.6,115.8,78.4,114,78.4,113.1z M75.4,102.9L75.4,102.9z"/>
<polyline class="st12" points="73.8,115.1 86.2,109 73.8,102.9 "/>
<rect x="28.7" y="106.9" transform="matrix(2.443448e-03 -1 1 2.443448e-03 -74.1505 143.4831)" class="st12" width="12.2" height="4.1"/>
<path class="st13" d="M21.8,111.2l0-4.7c0-2.1,1.7-3.7,3.7-3.7l6.8,0l0,0l0,12.2l0,0l-6.8,0C23.5,115,21.8,113.3,21.8,111.2z"/>
<polyline class="st2" points="73.8,115.1 36.9,115 36.9,102.8 73.8,102.9 "/>
<path class="st14" d="M72.3,108.8c0-0.7,0.3-1.4,0.8-2l0.2-0.2l-29.7-0.1c-1.2,0-2.2,1-2.2,2.2s1,2.2,2.2,2.2l29.7,0.1l-0.3-0.2
	C72.5,110.2,72.3,109.5,72.3,108.8z"/>
<polygon class="st15" points="80.3,111.9 80.3,106 86.2,109 "/>
</svg>
